<svg width="1440" height="271" viewBox="0 0 1440 271" fill="none" xmlns="http://www.w3.org/2000/svg">
<g clip-path="url(#clip0_585_4278)">
<rect width="1440" height="271" fill="#D3EDFF"/>
<path d="M1393.02 724.5C1241.47 813.713 1012.34 835.806 1001.63 655.953C991.703 489.201 1119.06 484.724 1149.92 317.986C1180.79 151.247 989.891 124.425 1047.67 -51.8492C1081.21 -154.164 1182.32 -241.614 1295.97 -250.494C1409.63 -259.374 1535.83 -189.685 1619.54 22.2803C1698.62 222.506 1664 385.104 1598.61 504.124C1533.21 623.144 1437.04 698.586 1393.02 724.5Z" stroke="#4CA5FD" stroke-width="2.10293" stroke-miterlimit="10"/>
<path d="M1609.73 38.1234C1682.53 221.565 1651.47 371.009 1591.71 480.818C1532.21 589.835 1444.52 659.426 1403.44 684.136C1263.53 767.78 1051.53 789.404 1037.73 625.73C1024.98 474.602 1138.45 467.606 1165.92 314.213C1166.69 309.847 1167.3 305.581 1167.77 301.407C1180.45 188.353 1084.38 144.294 1069.04 53.5086C1064.87 28.8638 1066.53 0.812984 1077.9 -32.827C1110.6 -129.59 1204.64 -209.891 1309.58 -217.321C1415.02 -224.647 1531.6 -158.168 1609.73 38.1234Z" stroke="#4CA5FD" stroke-width="2.10293" stroke-miterlimit="10"/>
<path d="M1599.88 53.9453C1666.4 220.601 1638.91 356.893 1584.79 457.495C1531.19 556.511 1452.02 620.383 1413.86 643.76C1285.69 722.279 1090.74 743.027 1073.82 595.508C1058.28 460.018 1158.25 450.442 1181.89 310.434C1182.57 306.399 1183.09 302.454 1183.5 298.589C1194.52 194.196 1110.12 150.646 1098.49 66.149C1095.31 43.0766 1097.32 17.0321 1108.1 -13.8091C1139.99 -105.03 1226.93 -178.178 1323.16 -184.161C1420.37 -189.936 1527.33 -126.671 1599.88 53.9453Z" stroke="#4CA5FD" stroke-width="2.10293" stroke-miterlimit="10"/>
<path d="M1590.03 69.7679C1650.28 219.639 1626.55 342.867 1577.87 434.172C1530.36 523.276 1459.5 581.265 1424.27 603.386C1307.8 676.518 1129.98 696.674 1109.91 565.287C1091.6 445.454 1177.81 433.295 1197.87 306.657C1198.45 302.953 1198.89 299.328 1199.23 295.773C1208.59 200.04 1135.88 156.977 1127.94 78.7907C1125.75 57.2855 1128.13 33.2506 1138.3 5.20953C1169.4 -80.4771 1249.22 -146.464 1336.73 -151.001C1425.72 -155.225 1523.07 -95.1736 1590.03 69.7679Z" stroke="#4CA5FD" stroke-width="2.10293" stroke-miterlimit="10"/>
<path d="M1580.18 85.5915C1634.44 218.461 1614.05 328.777 1570.95 410.851C1529.4 489.975 1466.98 542.141 1434.68 563.014C1329.91 630.723 1169.26 650.348 1146 535.067C1124.98 430.907 1197.34 416.147 1213.84 302.881C1214.33 299.508 1214.68 296.204 1214.96 292.958C1222.66 205.886 1161.65 163.281 1157.39 91.4347C1156.2 71.4882 1158.95 49.472 1168.5 24.231C1198.85 -55.9295 1271.56 -114.99 1350.3 -117.837C1431.12 -120.761 1519.12 -63.9183 1580.18 85.5915Z" stroke="#4CA5FD" stroke-width="2.10293" stroke-miterlimit="10"/>
<path d="M1570.33 101.414C1618.37 217.462 1601.54 314.679 1564.03 387.528C1528.43 456.668 1474.46 503.004 1445.09 522.639C1352.01 584.88 1208.62 604.043 1182.09 504.846C1158.42 416.368 1216.84 398.992 1229.82 299.102C1230.21 296.06 1230.48 293.078 1230.7 290.14C1236.73 211.729 1187.47 169.55 1186.84 104.075C1186.66 85.6783 1189.79 65.69 1198.71 43.249C1228.35 -31.3894 1293.86 -83.3144 1363.88 -84.6775C1436.49 -86.0916 1514.92 -32.4687 1570.33 101.414Z" stroke="#4CA5FD" stroke-width="2.10293" stroke-miterlimit="10"/>
<path d="M1560.49 117.237C1602.27 216.478 1589.03 300.575 1557.11 364.205C1527.45 423.352 1481.93 463.852 1455.5 482.265C1374.1 538.98 1248.09 557.743 1218.18 474.624C1191.98 401.821 1236.29 381.837 1245.79 295.325C1246.09 292.614 1246.27 289.952 1246.43 287.324C1250.8 217.574 1213.33 175.782 1216.29 116.717C1217.13 99.8598 1220.66 81.9124 1228.91 62.2683C1257.92 -6.84717 1316.15 -51.6212 1377.45 -51.5159C1441.85 -51.4062 1510.7 -1.00706 1560.49 117.237Z" stroke="#4CA5FD" stroke-width="2.10293" stroke-miterlimit="10"/>
<path d="M1550.64 133.059C1586.15 215.512 1576.5 286.458 1550.19 340.883C1526.44 390.024 1489.41 424.677 1465.92 441.891C1396.17 493.002 1283.9 514.513 1254.27 444.403C1228.97 384.564 1255.66 364.686 1261.77 291.547C1261.97 289.166 1262.07 286.827 1262.16 284.505C1264.88 223.416 1239.27 181.974 1245.74 129.357C1247.62 114.028 1251.57 98.1375 1259.11 81.2857C1287.57 17.7061 1338.45 -19.9074 1391.03 -18.3562C1447.21 -16.6984 1506.45 30.4716 1550.64 133.059Z" stroke="#4CA5FD" stroke-width="2.10293" stroke-miterlimit="10"/>
<path d="M1540.79 148.882C1569.99 214.575 1563.94 272.324 1543.28 317.56C1525.41 356.68 1496.87 385.469 1476.33 401.517C1418.21 446.923 1327.65 464.878 1290.36 414.182C1259.67 372.468 1274.93 347.549 1277.74 287.769C1277.84 285.72 1277.86 283.701 1277.9 281.689C1278.95 229.26 1265.31 188.144 1275.19 141.999C1278.14 128.192 1282.51 114.376 1289.31 100.305C1317.37 42.3016 1360.73 11.8419 1404.6 14.8042C1452.56 18.0431 1502.16 61.9821 1540.79 148.882Z" stroke="#4CA5FD" stroke-width="2.10293" stroke-miterlimit="10"/>
<path d="M1530.94 164.704C1553.77 213.689 1551.3 258.164 1536.36 294.237C1524.31 323.312 1504.31 346.212 1486.74 361.142C1440.18 400.713 1367.93 417.9 1326.45 383.96C1293.92 357.349 1294.04 330.46 1293.72 283.991C1293.71 282.275 1293.66 280.575 1293.63 278.871C1293.02 235.104 1291.49 194.335 1304.64 154.64C1308.7 142.361 1313.49 130.637 1319.52 119.323C1347.38 66.9979 1383 43.6436 1418.17 47.9647C1457.89 52.8452 1497.79 93.5602 1530.94 164.704Z" stroke="#4CA5FD" stroke-width="2.10293" stroke-miterlimit="10"/>
<path d="M1362.54 353.74C1326.89 341.088 1311.64 311.162 1309.36 276.055C1307.09 240.948 1317.8 200.66 1334.09 167.282C1367.51 98.7957 1400.32 74.4978 1431.75 81.126C1463.18 87.7542 1493.22 125.309 1521.1 180.527C1548.97 235.745 1532.29 287.195 1497.15 320.767C1462.02 354.34 1408.44 370.035 1362.54 353.74Z" stroke="#4CA5FD" stroke-width="2.10293" stroke-miterlimit="10"/>
</g>
<defs>
<clipPath id="clip0_585_4278">
<rect width="1440" height="271" fill="white"/>
</clipPath>
</defs>
</svg>
