<svg width="1440" height="271" viewBox="0 0 1440 271" fill="none" xmlns="http://www.w3.org/2000/svg">
<g clip-path="url(#clip0_740_4275)">
<rect width="1440" height="271" fill="#D3EDFF"/>
<path d="M1393.02 724.499C1241.47 813.712 1012.34 835.805 1001.63 655.952C991.703 489.2 1119.06 484.723 1149.92 317.985C1180.79 151.247 989.891 124.424 1047.67 -51.8502C1081.21 -154.165 1182.32 -241.615 1295.97 -250.495C1409.63 -259.375 1535.83 -189.686 1619.54 22.2793C1698.62 222.505 1664 385.103 1598.61 504.123C1533.21 623.143 1437.04 698.585 1393.02 724.499Z" stroke="#4CA5FD" stroke-width="2.10293" stroke-miterlimit="10"/>
<path d="M1609.73 38.1215C1682.53 221.563 1651.47 371.007 1591.71 480.816C1532.21 589.833 1444.52 659.424 1403.44 684.134C1263.53 767.778 1051.53 789.402 1037.73 625.728C1024.98 474.6 1138.45 467.604 1165.92 314.211C1166.69 309.845 1167.3 305.579 1167.77 301.405C1180.45 188.351 1084.38 144.292 1069.04 53.5067C1064.87 28.8619 1066.53 0.811031 1077.9 -32.8289C1110.6 -129.592 1204.64 -209.893 1309.58 -217.323C1415.02 -224.649 1531.6 -158.17 1609.73 38.1215Z" stroke="#4CA5FD" stroke-width="2.10293" stroke-miterlimit="10"/>
<path d="M1599.88 53.9453C1666.4 220.601 1638.91 356.893 1584.79 457.495C1531.19 556.511 1452.02 620.383 1413.86 643.76C1285.69 722.279 1090.74 743.027 1073.82 595.508C1058.28 460.018 1158.25 450.442 1181.89 310.434C1182.57 306.399 1183.09 302.454 1183.5 298.589C1194.52 194.196 1110.12 150.646 1098.49 66.149C1095.31 43.0766 1097.32 17.0321 1108.1 -13.8091C1139.99 -105.03 1226.93 -178.178 1323.16 -184.161C1420.37 -189.936 1527.33 -126.671 1599.88 53.9453Z" stroke="#4CA5FD" stroke-width="2.10293" stroke-miterlimit="10"/>
<path d="M1590.03 69.7679C1650.28 219.639 1626.55 342.867 1577.87 434.172C1530.36 523.276 1459.5 581.265 1424.27 603.386C1307.8 676.518 1129.98 696.674 1109.91 565.287C1091.6 445.454 1177.81 433.295 1197.87 306.657C1198.45 302.953 1198.89 299.328 1199.23 295.773C1208.59 200.04 1135.88 156.977 1127.94 78.7907C1125.75 57.2855 1128.13 33.2506 1138.3 5.20953C1169.4 -80.4771 1249.22 -146.464 1336.73 -151.001C1425.72 -155.225 1523.07 -95.1736 1590.03 69.7679Z" stroke="#4CA5FD" stroke-width="2.10293" stroke-miterlimit="10"/>
<path d="M1580.18 85.5905C1634.45 218.46 1614.05 328.776 1570.95 410.85C1529.4 489.974 1466.98 542.14 1434.68 563.013C1329.91 630.722 1169.26 650.347 1146 535.066C1124.98 430.906 1197.34 416.146 1213.84 302.88C1214.33 299.507 1214.68 296.204 1214.96 292.957C1222.66 205.885 1161.65 163.28 1157.39 91.4337C1156.2 71.4872 1158.95 49.471 1168.5 24.2301C1198.85 -55.9305 1271.56 -114.991 1350.3 -117.838C1431.12 -120.762 1519.12 -63.9193 1580.18 85.5905Z" stroke="#4CA5FD" stroke-width="2.10293" stroke-miterlimit="10"/>
<path d="M1570.33 101.413C1618.37 217.461 1601.54 314.678 1564.03 387.527C1528.43 456.667 1474.46 503.003 1445.09 522.638C1352.01 584.879 1208.62 604.042 1182.09 504.845C1158.42 416.367 1216.84 398.991 1229.82 299.101C1230.21 296.059 1230.48 293.077 1230.7 290.139C1236.73 211.728 1187.47 169.549 1186.84 104.074C1186.66 85.6773 1189.79 65.6891 1198.71 43.248C1228.35 -31.3904 1293.86 -83.3154 1363.88 -84.6784C1436.49 -86.0925 1514.92 -32.4697 1570.33 101.413Z" stroke="#4CA5FD" stroke-width="2.10293" stroke-miterlimit="10"/>
<path d="M1560.49 117.236C1602.27 216.477 1589.03 300.574 1557.11 364.204C1527.45 423.351 1481.93 463.851 1455.5 482.264C1374.1 538.979 1248.09 557.742 1218.18 474.623C1191.98 401.82 1236.29 381.836 1245.79 295.324C1246.09 292.613 1246.27 289.951 1246.43 287.323C1250.8 217.573 1213.33 175.781 1216.29 116.716C1217.13 99.8588 1220.66 81.9114 1228.91 62.2673C1257.92 -6.84815 1316.15 -51.6222 1377.45 -51.5169C1441.85 -51.4072 1510.7 -1.00804 1560.49 117.236Z" stroke="#4CA5FD" stroke-width="2.10293" stroke-miterlimit="10"/>
<path d="M1550.64 133.058C1586.15 215.511 1576.5 286.457 1550.19 340.882C1526.44 390.023 1489.41 424.676 1465.92 441.89C1396.17 493.001 1283.9 514.512 1254.27 444.402C1228.97 384.563 1255.66 364.685 1261.77 291.546C1261.97 289.165 1262.07 286.826 1262.16 284.504C1264.88 223.415 1239.27 181.973 1245.74 129.356C1247.62 114.027 1251.57 98.1365 1259.11 81.2848C1287.57 17.7051 1338.45 -19.9084 1391.03 -18.3572C1447.21 -16.6994 1506.45 30.4706 1550.64 133.058Z" stroke="#4CA5FD" stroke-width="2.10293" stroke-miterlimit="10"/>
<path d="M1540.79 148.882C1569.99 214.575 1563.94 272.324 1543.28 317.56C1525.41 356.68 1496.87 385.469 1476.33 401.517C1418.21 446.923 1327.65 464.878 1290.36 414.182C1259.67 372.468 1274.93 347.549 1277.74 287.769C1277.84 285.72 1277.86 283.701 1277.9 281.689C1278.95 229.26 1265.31 188.144 1275.19 141.999C1278.14 128.192 1282.51 114.376 1289.31 100.305C1317.37 42.3016 1360.73 11.8419 1404.6 14.8042C1452.56 18.0431 1502.16 61.9821 1540.79 148.882Z" stroke="#4CA5FD" stroke-width="2.10293" stroke-miterlimit="10"/>
<path d="M1530.94 164.703C1553.77 213.688 1551.3 258.163 1536.36 294.236C1524.31 323.311 1504.31 346.211 1486.74 361.141C1440.18 400.712 1367.93 417.899 1326.45 383.959C1293.92 357.348 1294.04 330.459 1293.72 283.99C1293.71 282.274 1293.66 280.574 1293.63 278.87C1293.02 235.103 1291.49 194.334 1304.64 154.639C1308.7 142.36 1313.49 130.636 1319.52 119.322C1347.38 66.9969 1383 43.6426 1418.17 47.9637C1457.89 52.8443 1497.79 93.5592 1530.94 164.703Z" stroke="#4CA5FD" stroke-width="2.10293" stroke-miterlimit="10"/>
<path d="M1362.54 353.739C1326.89 341.087 1311.64 311.161 1309.36 276.054C1307.09 240.947 1317.8 200.659 1334.09 167.281C1367.51 98.7947 1400.32 74.4968 1431.75 81.125C1463.18 87.7532 1493.22 125.308 1521.1 180.526C1548.97 235.744 1532.29 287.194 1497.15 320.766C1462.02 354.339 1408.44 370.034 1362.54 353.739Z" stroke="#4CA5FD" stroke-width="2.10293" stroke-miterlimit="10"/>
</g>
<defs>
<clipPath id="clip0_740_4275">
<rect width="1440" height="271" fill="white"/>
</clipPath>
</defs>
</svg>
