<svg width="648" height="557" viewBox="0 0 648 557" fill="none" xmlns="http://www.w3.org/2000/svg">
<g clip-path="url(#clip0_1493_4349)">
<path d="M1111.81 323.114C1098.08 506.583 964.859 745.883 778.264 695.995C605.26 649.742 687.089 519.366 541.738 431.842C396.387 344.319 240.296 528.42 103.672 410.444C24.3722 341.968 5.68072 210.135 73.8349 92.1351C141.989 -25.8645 296.989 -130.031 565.071 -143.172C818.306 -155.586 956.984 -65.6598 1031.36 40.6914C1105.73 147.042 1115.8 269.821 1111.81 323.114Z" stroke="#BFBFBF" stroke-opacity="0.33" stroke-width="2.10293" stroke-miterlimit="10"/>
<path d="M574.177 -127.866C806.423 -139.599 934.402 -57.7215 1003.41 39.8175C1071.81 136.821 1081.79 249.045 1078.6 298.948C1067.21 468.758 945.143 690.567 772.581 649.275C613.246 611.15 683.148 493.976 548.796 414.402C544.963 412.15 541.125 410.089 537.279 408.208C433.136 357.211 324.115 439.538 223.188 424.419C195.791 420.314 168.943 409.165 143.101 386.305C68.7678 320.549 52.4069 198.289 116.099 89.5954C180.228 -19.5609 325.508 -115.083 574.177 -127.866Z" stroke="#BFBFBF" stroke-opacity="0.33" stroke-width="2.10293" stroke-miterlimit="10"/>
<path d="M583.282 -112.56C794.541 -123.613 911.82 -49.7821 975.467 38.9446C1037.89 126.599 1047.94 228.278 1045.4 274.782C1036.86 430.969 925.462 635.237 766.896 602.556C621.261 572.54 679.445 468.152 555.852 396.962C552.29 394.91 548.709 393.052 545.129 391.338C448.496 344.946 347.888 415.641 255.747 398.887C230.587 394.312 205.979 383.486 182.529 362.166C113.169 299.106 99.1317 186.442 158.363 87.0543C218.467 -13.257 354.027 -100.133 583.282 -112.56Z" stroke="#BFBFBF" stroke-opacity="0.33" stroke-width="2.10293" stroke-miterlimit="10"/>
<path d="M592.388 -97.2556C782.659 -107.627 889.457 -42.0074 947.524 38.0705C1004.19 116.218 1014 207.502 1012.19 250.615C1006.21 393.148 905.827 579.883 761.213 555.835C629.317 533.902 675.599 442.57 562.909 379.522C559.613 377.678 556.293 376.014 552.98 374.467C463.858 332.68 371.65 391.718 288.306 373.355C265.383 368.305 243.023 357.79 221.957 338.026C157.583 277.631 145.857 174.596 200.626 84.5136C256.706 -6.95447 382.547 -85.1867 592.388 -97.2556Z" stroke="#BFBFBF" stroke-opacity="0.33" stroke-width="2.10293" stroke-miterlimit="10"/>
<path d="M601.495 -81.9483C770.753 -91.9976 866.937 -34.1161 919.58 37.1987C970.33 105.952 980.055 186.726 978.987 226.452C975.519 355.322 886.248 524.494 755.53 509.117C637.422 495.223 671.732 417.019 569.967 362.084C566.936 360.448 563.879 358.979 560.832 357.599C479.22 320.417 395.401 367.763 320.867 347.827C300.174 342.291 280.081 332.079 261.386 313.889C202.014 256.12 192.379 162.617 242.893 81.976C294.734 -0.788177 411.039 -70.6405 601.495 -81.9483Z" stroke="#BFBFBF" stroke-opacity="0.33" stroke-width="2.10293" stroke-miterlimit="10"/>
<path d="M610.601 -66.6433C758.866 -76.0691 844.408 -26.2243 891.636 36.3247C936.459 95.6894 946.097 165.944 945.781 202.285C944.779 317.484 866.739 469.039 749.846 462.396C645.585 456.471 667.836 391.499 577.023 344.643C574.257 343.216 571.463 341.941 568.682 340.728C494.581 308.151 419.142 343.76 353.425 322.294C334.961 316.263 317.153 306.343 300.814 289.748C246.472 234.555 239.074 150.746 285.156 79.4347C332.941 5.48784 439.551 -55.769 610.601 -66.6433Z" stroke="#BFBFBF" stroke-opacity="0.33" stroke-width="2.10293" stroke-miterlimit="10"/>
<path d="M619.707 -51.3362C746.979 -60.1155 821.864 -18.3223 863.691 35.453C902.571 85.4382 912.121 145.161 912.575 178.121C913.974 279.638 847.31 413.474 744.162 415.677C653.815 417.607 663.905 366.03 584.08 327.203C581.578 325.987 579.048 324.904 576.532 323.857C509.942 295.886 442.881 319.693 385.984 296.764C369.746 290.22 354.244 280.584 340.241 265.61C290.975 212.926 285.784 138.884 327.42 76.8954C371.16 11.7729 468.063 -40.8757 619.707 -51.3362Z" stroke="#BFBFBF" stroke-opacity="0.33" stroke-width="2.10293" stroke-miterlimit="10"/>
<path d="M628.812 -36.0301C735.093 -44.1296 799.297 -10.4091 835.746 34.58C868.658 75.2012 878.119 124.375 879.369 153.955C883.08 241.784 828.467 362.641 738.478 368.958C661.671 374.349 659.93 340.636 591.136 309.764C588.897 308.759 586.632 307.867 584.382 306.987C525.302 283.621 466.629 295.538 418.542 271.232C404.532 264.151 391.361 254.793 379.668 241.47C335.553 191.206 332.513 127.032 369.683 74.355C409.4 18.0686 496.576 -25.9527 628.812 -36.0301Z" stroke="#BFBFBF" stroke-opacity="0.33" stroke-width="2.10293" stroke-miterlimit="10"/>
<path d="M637.919 -20.7252C723.211 -28.0953 776.692 -2.4704 807.802 33.7061C834.706 64.9914 844.079 103.587 846.164 129.789C852.064 203.928 808.613 301.617 732.794 322.237C670.409 339.203 655.898 315.351 598.193 292.324C596.215 291.534 594.216 290.83 592.233 290.117C540.664 271.355 490.427 271.27 451.101 245.7C439.334 238.05 428.517 228.968 419.097 217.33C380.266 169.36 379.272 115.2 411.947 71.8137C447.669 24.3821 525.092 -10.9759 637.919 -20.7252Z" stroke="#BFBFBF" stroke-opacity="0.33" stroke-width="2.10293" stroke-miterlimit="10"/>
<path d="M647.024 -5.41869C711.336 -11.9788 754.014 5.53168 779.858 32.8336C800.689 54.8388 809.973 82.8082 812.958 105.624C820.871 166.094 789.057 245.005 727.11 275.518C678.538 299.442 651.802 290.25 605.249 274.884C603.53 274.316 601.801 273.794 600.083 273.247C556.025 259.091 514.336 246.874 483.66 220.17C474.171 211.91 465.725 203.107 458.524 193.192C425.224 147.336 426.073 103.403 454.211 69.2747C485.986 30.7365 553.619 4.10915 647.024 -5.41869Z" stroke="#BFBFBF" stroke-opacity="0.33" stroke-width="2.10293" stroke-miterlimit="10"/>
<path d="M721.427 228.797C684.66 260.593 644.482 265.927 607.934 256.376C571.386 246.824 538.468 222.386 516.22 194.637C470.569 137.701 468.573 96.2957 496.475 66.7333C524.378 37.1708 582.181 19.4506 656.13 9.88557C730.079 0.320505 770.078 34.5743 779.752 81.4565C789.428 128.339 768.777 187.849 721.427 228.797Z" stroke="#BFBFBF" stroke-opacity="0.33" stroke-width="2.10293" stroke-miterlimit="10"/>
</g>
<defs>
<clipPath id="clip0_1493_4349">
<rect width="586" height="477" fill="white" transform="translate(0 83.9521) rotate(-8.13845)"/>
</clipPath>
</defs>
</svg>
