<svg width="1440" height="1122" viewBox="0 0 1440 1122" fill="none" xmlns="http://www.w3.org/2000/svg">
<path d="M-87.0876 599.41C-66.7906 414.803 151.314 159.626 462.089 186.07C750.227 210.587 616.03 350.766 858.78 419.875C1101.53 488.984 1358.4 285.98 1587.07 386.534C1719.79 444.899 1752.66 573.986 1641.02 700.122C1529.38 826.258 1273.22 949.442 827.896 995.999C407.232 1039.98 175.539 967.642 50.4841 870.906C-74.5708 774.17 -92.9835 653.033 -87.0876 599.41Z" stroke="url(#paint0_linear_1165_4204)" stroke-width="2.10293" stroke-miterlimit="10"/>
<path d="M812.602 981.852C426.809 1022.54 213.002 956.898 96.9741 868.281C-18.0318 780.121 -36.1639 669.495 -31.5524 619.351C-14.9675 448.652 184.836 212.3 472.175 231.919C737.488 250.033 622.938 375.566 847.305 438.117C853.705 439.884 860.113 441.459 866.53 442.854C1040.3 480.69 1220.34 385.011 1388.27 387.483C1433.86 388.154 1478.63 395.916 1521.89 415.478C1646.32 471.748 1675.2 591.583 1570.85 707.886C1465.78 824.706 1225.67 938.064 812.602 981.852Z" stroke="url(#paint1_linear_1165_4204)" stroke-width="2.10293" stroke-miterlimit="10"/>
<path d="M797.259 967.732C446.335 1005.12 250.42 946.165 143.424 865.663C38.4741 786.077 20.3795 685.971 23.9635 639.296C35.9965 482.534 218.305 265 482.265 277.783C724.7 289.523 629.447 400.847 835.82 456.384C841.767 457.985 847.744 459.39 853.717 460.652C1014.94 494.835 1181.16 411.802 1334.52 416.999C1376.39 418.419 1417.44 426.14 1456.7 444.465C1572.83 498.668 1597.71 609.226 1500.65 715.696C1402.15 823.196 1178.07 926.723 797.259 967.732Z" stroke="url(#paint2_linear_1165_4204)" stroke-width="2.10293" stroke-miterlimit="10"/>
<path d="M781.915 953.61C465.861 987.703 287.477 935.622 189.875 863.044C94.6278 792.217 77.066 702.444 79.4786 659.24C87.4571 516.407 251.7 317.727 492.354 323.646C711.846 329.044 636.192 425.867 824.333 474.649C829.836 476.076 835.376 477.32 840.903 478.448C989.585 508.978 1142 438.615 1280.76 446.515C1318.93 448.687 1356.23 456.378 1391.51 473.45C1499.32 525.619 1520.23 626.867 1430.45 723.503C1338.52 821.685 1130.47 915.382 781.915 953.61Z" stroke="url(#paint3_linear_1165_4204)" stroke-width="2.10293" stroke-miterlimit="10"/>
<path d="M766.572 939.489C485.431 970.637 324.792 924.945 236.325 860.426C151.039 798.224 133.765 718.918 134.992 679.183C138.979 550.284 284.999 370.498 502.442 369.509C698.91 368.614 642.97 450.856 812.845 492.914C817.903 494.166 823.004 495.25 828.088 496.245C964.224 523.121 1102.86 465.46 1227 476.029C1261.47 478.963 1295 486.635 1326.32 502.434C1425.78 552.61 1443.08 644.616 1360.25 731.311C1275.24 820.287 1082.92 904.44 766.572 939.489Z" stroke="url(#paint4_linear_1165_4204)" stroke-width="2.10293" stroke-miterlimit="10"/>
<path d="M751.228 925.367C504.967 953.273 362.123 914.264 282.776 857.807C207.469 804.224 190.485 735.393 190.509 699.127C190.585 584.165 318.186 423.343 512.533 415.372C685.879 408.262 649.797 475.808 801.359 511.18C805.975 512.257 810.637 513.179 815.275 514.041C938.868 537.265 1063.74 492.35 1173.25 505.544C1204.02 509.252 1233.75 516.917 1261.13 531.42C1352.2 579.656 1365.65 662.278 1290.05 739.118C1211.66 818.799 1035.33 893.173 751.228 925.367Z" stroke="url(#paint5_linear_1165_4204)" stroke-width="2.10293" stroke-miterlimit="10"/>
<path d="M735.884 911.246C524.501 935.887 399.478 903.573 329.227 855.189C263.927 810.214 247.232 751.871 246.024 719.071C242.299 618.048 351.239 476.31 522.623 461.236C672.737 448.033 656.68 500.707 789.872 529.447C794.046 530.348 798.266 531.111 802.46 531.84C913.507 551.411 1024.62 519.306 1119.49 535.061C1146.57 539.557 1172.46 547.227 1195.94 560.406C1278.54 606.774 1288.19 679.935 1219.85 746.928C1148.06 817.306 987.746 881.887 735.884 911.246Z" stroke="url(#paint6_linear_1165_4204)" stroke-width="2.10293" stroke-miterlimit="10"/>
<path d="M720.542 897.125C544.032 918.468 436.872 892.868 375.679 852.571C320.426 816.186 304.024 768.347 301.539 739.016C294.162 651.927 383.254 524.63 532.713 507.099C660.278 492.136 663.637 525.526 778.387 547.713C782.122 548.435 785.897 549.041 789.649 549.638C888.152 565.555 985.491 546.351 1065.74 564.577C1089.12 569.887 1111.14 577.571 1130.75 589.393C1204.76 633.992 1210.69 697.584 1149.65 754.737C1084.42 815.805 940.156 870.571 720.542 897.125Z" stroke="url(#paint7_linear_1165_4204)" stroke-width="2.10293" stroke-miterlimit="10"/>
<path d="M705.196 883.005C563.555 901 474.326 882.132 422.127 849.953C376.986 822.125 360.879 784.821 357.052 758.961C346.226 685.791 417.086 582.984 542.801 552.964C646.241 528.262 670.684 550.228 766.898 565.979C770.196 566.52 773.527 566.972 776.833 567.435C862.791 579.7 946.277 573.514 1011.98 594.093C1031.64 600.25 1049.74 607.954 1065.56 618.379C1130.75 661.351 1133.15 715.217 1079.45 762.546C1020.74 814.288 892.56 859.201 705.196 883.005Z" stroke="url(#paint8_linear_1165_4204)" stroke-width="2.10293" stroke-miterlimit="10"/>
<path d="M689.852 868.884C583.068 883.452 511.903 871.325 468.577 847.335C433.657 827.999 417.843 801.277 412.567 778.905C398.584 719.612 450.366 636.978 552.891 598.827C633.279 568.914 677.837 574.74 755.412 584.246C758.276 584.597 761.157 584.902 764.02 585.233C837.432 593.844 906.88 600.818 958.226 623.609C974.11 630.658 988.267 638.379 1000.37 647.364C1056.34 688.919 1055.54 732.82 1009.25 770.354C956.972 812.738 844.945 847.725 689.852 868.884Z" stroke="url(#paint9_linear_1165_4204)" stroke-width="2.10293" stroke-miterlimit="10"/>
<path d="M562.982 644.691C623.644 608.405 690.339 598.072 751.207 603.031C812.075 607.99 867.116 628.241 904.472 653.125C981.12 704.184 985.009 745.21 939.047 778.163C893.085 811.116 797.271 835.997 674.512 854.764C551.753 873.531 484.81 844.378 468.086 798.851C451.361 753.324 484.857 691.422 562.982 644.691Z" stroke="url(#paint10_linear_1165_4204)" stroke-width="2.10293" stroke-miterlimit="10"/>
<path d="M1606.76 -99.6349C1599.56 85.6052 1399.86 350.397 1087.72 338.289C798.315 327.063 922.377 180.94 675.132 123.108C427.888 65.2761 185.797 279.764 -49.6081 189.889C-186.244 137.723 -228.194 10.3579 -125.658 -120.707C-23.1219 -251.771 223.9 -386.535 665.209 -453.498C1082.08 -516.752 1318.51 -455.189 1450.2 -364.362C1581.9 -273.535 1608.85 -153.442 1606.76 -99.6349Z" stroke="url(#paint11_linear_1165_4204)" stroke-width="2.10293" stroke-miterlimit="10"/>
<path d="M681.479 -440.078C1063.77 -498.444 1281.87 -442.741 1403.98 -359.603C1525.03 -276.877 1550.96 -167.265 1549.9 -116.99C1545.42 54.1937 1362.66 299.35 1074.41 292.978C808.243 287.095 913.726 156.498 685.298 104.368C678.784 102.898 672.275 101.62 665.77 100.523C489.605 70.7406 316.628 174.543 148.795 179.799C103.235 181.225 57.9889 175.535 13.4149 157.994C-114.799 107.539 -152.104 -10.7725 -56.1543 -131.685C40.4767 -253.147 272.181 -377.364 681.479 -440.078Z" stroke="url(#paint12_linear_1165_4204)" stroke-width="2.10293" stroke-miterlimit="10"/>
<path d="M697.796 -426.685C1045.5 -480.155 1245.27 -430.304 1357.79 -354.853C1468.2 -280.224 1493.34 -181.113 1493.07 -134.349C1492.14 22.7115 1325.52 248.276 1061.09 247.653C818.216 247.082 905.438 131.558 695.473 85.603C689.422 84.2785 683.355 83.1501 677.303 82.1651C513.921 55.4526 353.845 145.995 200.374 147.859C158.468 148.367 116.944 142.547 76.4472 126.057C-43.3313 77.2836 -75.9929 -31.9503 13.3792 -142.711C104.113 -254.566 320.505 -368.23 697.796 -426.685Z" stroke="url(#paint13_linear_1165_4204)" stroke-width="2.10293" stroke-miterlimit="10"/>
<path d="M714.113 -413.293C1027.24 -461.865 1209.02 -418.073 1311.6 -350.103C1411.7 -283.771 1435.58 -194.952 1436.23 -151.707C1438.37 -8.74017 1288.45 197.17 1047.77 202.329C828.253 207.034 896.935 106.889 705.649 66.8394C700.054 65.6683 694.435 64.6805 688.837 63.8085C538.237 40.166 391.044 117.425 251.954 115.92C213.697 115.505 175.912 109.543 139.48 94.1214C28.1534 46.9959 0.118633 -53.1259 82.9115 -153.734C167.749 -255.984 368.83 -359.097 714.113 -413.293Z" stroke="url(#paint14_linear_1165_4204)" stroke-width="2.10293" stroke-miterlimit="10"/>
<path d="M730.431 -399.9C1008.91 -443.927 1172.52 -405.697 1265.41 -345.352C1354.96 -287.174 1377.81 -208.791 1379.4 -169.065C1384.54 -40.1926 1251.47 146.016 1034.45 157.005C838.369 166.933 888.399 82.2525 715.826 48.0755C710.687 47.0581 705.518 46.2111 700.372 45.4516C562.556 24.8795 428.221 88.8237 303.537 83.9808C268.921 82.6361 234.901 76.5189 202.516 62.1858C99.6645 16.6662 75.883 -74.3944 152.449 -164.757C231.027 -257.498 417.076 -350.359 730.431 -399.9Z" stroke="url(#paint15_linear_1165_4204)" stroke-width="2.10293" stroke-miterlimit="10"/>
<path d="M746.749 -386.507C990.635 -425.693 1136.01 -393.317 1219.22 -340.601C1298.19 -290.569 1320.02 -222.631 1322.56 -186.423C1330.62 -71.6444 1214.6 94.7843 1021.13 111.68C848.574 126.751 879.818 57.6552 726 29.3115C721.316 28.4488 716.597 27.7418 711.905 27.0945C586.871 9.59244 465.376 60.1781 355.115 52.0412C324.134 49.755 293.91 43.4695 265.548 30.2494C171.215 -13.7199 151.942 -95.5888 221.981 -175.781C294.607 -258.937 465.382 -341.299 746.749 -386.507Z" stroke="url(#paint16_linear_1165_4204)" stroke-width="2.10293" stroke-miterlimit="10"/>
<path d="M763.067 -373.115C972.363 -407.437 1099.47 -380.926 1173.03 -335.851C1241.4 -293.953 1262.2 -236.472 1265.72 -203.782C1276.59 -103.094 1177.86 43.4233 1007.82 66.3542C858.881 86.4395 871.185 33.1126 736.177 10.545C731.946 9.83818 727.679 9.26987 723.44 8.73508C611.189 -5.69652 502.524 31.4659 406.695 20.1002C379.346 16.8566 352.951 10.3897 328.581 -1.68835C242.836 -44.1821 228.029 -116.78 291.516 -186.806C358.211 -260.372 513.691 -332.22 763.067 -373.115Z" stroke="url(#paint17_linear_1165_4204)" stroke-width="2.10293" stroke-miterlimit="10"/>
<path d="M779.383 -359.723C954.095 -389.148 1062.89 -368.519 1126.84 -331.101C1184.57 -297.316 1204.33 -250.31 1208.89 -221.141C1222.41 -134.533 1142.47 -3.34622 994.498 21.0299C868.199 41.8351 862.483 8.6544 746.351 -8.21916C742.571 -8.76799 738.759 -9.19981 734.971 -9.62265C635.502 -20.9843 539.68 2.66604 458.273 -11.8401C434.557 -16.0658 412.031 -22.7254 391.612 -33.6254C314.572 -74.7482 304.147 -137.964 361.048 -197.831C421.849 -261.799 562.004 -323.111 779.383 -359.723Z" stroke="url(#paint18_linear_1165_4204)" stroke-width="2.10293" stroke-miterlimit="10"/>
<path d="M795.703 -346.331C935.84 -370.811 1026.26 -356.077 1080.65 -326.351C1127.69 -300.644 1146.41 -264.142 1152.06 -238.5C1168.04 -165.948 1104.57 -60.0489 981.182 -24.2957C879.658 5.12282 853.7 -15.6829 756.529 -26.9839C753.198 -27.3717 749.841 -27.6697 746.507 -27.9804C659.822 -36.2723 576.909 -26.2561 509.855 -43.7804C489.792 -49.0234 471.175 -55.882 454.648 -65.5625C386.522 -105.466 380.317 -159.134 430.584 -208.856C485.538 -263.214 610.328 -313.949 795.703 -346.331Z" stroke="url(#paint19_linear_1165_4204)" stroke-width="2.10293" stroke-miterlimit="10"/>
<path d="M812.02 -332.938C917.601 -352.394 989.507 -343.559 1034.46 -321.601C1070.69 -303.903 1088.37 -277.951 1095.22 -255.859C1113.38 -197.305 1067.52 -112.424 967.864 -69.6203C889.723 -36.0587 844.825 -39.8255 766.704 -45.7484C763.82 -45.9675 760.922 -46.1397 758.041 -46.3378C684.139 -51.5593 614.31 -55.328 561.435 -75.7196C545.079 -82.0275 530.398 -89.0845 517.68 -97.4983C458.859 -136.412 456.558 -180.277 500.117 -219.88C549.307 -264.599 658.678 -304.681 812.02 -332.938Z" stroke="url(#paint20_linear_1165_4204)" stroke-width="2.10293" stroke-miterlimit="10"/>
<defs>
<linearGradient id="paint0_linear_1165_4204" x1="700.801" y1="134.978" x2="832.812" y2="998.627" gradientUnits="userSpaceOnUse">
<stop stop-color="#E6E7EC" stop-opacity="0.38"/>
<stop offset="0.25" stop-color="#172FFF" stop-opacity="0.06"/>
<stop offset="0.59375" stop-color="#1F35FF" stop-opacity="0.21"/>
<stop offset="0.786458" stop-color="#1F35FF" stop-opacity="0.1"/>
<stop offset="1" stop-color="#1F35FF" stop-opacity="0.02"/>
</linearGradient>
<linearGradient id="paint1_linear_1165_4204" x1="699.901" y1="185.298" x2="821.917" y2="983.434" gradientUnits="userSpaceOnUse">
<stop stop-color="#E6E7EC" stop-opacity="0.38"/>
<stop offset="0.25" stop-color="#172FFF" stop-opacity="0.06"/>
<stop offset="0.59375" stop-color="#1F35FF" stop-opacity="0.21"/>
<stop offset="0.786458" stop-color="#1F35FF" stop-opacity="0.1"/>
<stop offset="1" stop-color="#1F35FF" stop-opacity="0.02"/>
</linearGradient>
<linearGradient id="paint2_linear_1165_4204" x1="698.908" y1="235.539" x2="810.927" y2="968.276" gradientUnits="userSpaceOnUse">
<stop stop-color="#E6E7EC" stop-opacity="0.38"/>
<stop offset="0.25" stop-color="#172FFF" stop-opacity="0.06"/>
<stop offset="0.59375" stop-color="#1F35FF" stop-opacity="0.21"/>
<stop offset="0.786458" stop-color="#1F35FF" stop-opacity="0.1"/>
<stop offset="1" stop-color="#1F35FF" stop-opacity="0.02"/>
</linearGradient>
<linearGradient id="paint3_linear_1165_4204" x1="697.851" y1="285.643" x2="799.893" y2="953.126" gradientUnits="userSpaceOnUse">
<stop stop-color="#E6E7EC" stop-opacity="0.38"/>
<stop offset="0.25" stop-color="#172FFF" stop-opacity="0.06"/>
<stop offset="0.59375" stop-color="#1F35FF" stop-opacity="0.21"/>
<stop offset="0.786458" stop-color="#1F35FF" stop-opacity="0.1"/>
<stop offset="1" stop-color="#1F35FF" stop-opacity="0.02"/>
</linearGradient>
<linearGradient id="paint4_linear_1165_4204" x1="696.798" y1="335.539" x2="788.912" y2="938.073" gradientUnits="userSpaceOnUse">
<stop stop-color="#E6E7EC" stop-opacity="0.38"/>
<stop offset="0.25" stop-color="#172FFF" stop-opacity="0.06"/>
<stop offset="0.59375" stop-color="#1F35FF" stop-opacity="0.21"/>
<stop offset="0.786458" stop-color="#1F35FF" stop-opacity="0.1"/>
<stop offset="1" stop-color="#1F35FF" stop-opacity="0.02"/>
</linearGradient>
<linearGradient id="paint5_linear_1165_4204" x1="695.592" y1="385.153" x2="777.809" y2="922.954" gradientUnits="userSpaceOnUse">
<stop stop-color="#E6E7EC" stop-opacity="0.38"/>
<stop offset="0.25" stop-color="#172FFF" stop-opacity="0.06"/>
<stop offset="0.59375" stop-color="#1F35FF" stop-opacity="0.21"/>
<stop offset="0.786458" stop-color="#1F35FF" stop-opacity="0.1"/>
<stop offset="1" stop-color="#1F35FF" stop-opacity="0.02"/>
</linearGradient>
<linearGradient id="paint6_linear_1165_4204" x1="694.206" y1="434.312" x2="766.598" y2="907.85" gradientUnits="userSpaceOnUse">
<stop stop-color="#E6E7EC" stop-opacity="0.38"/>
<stop offset="0.25" stop-color="#172FFF" stop-opacity="0.06"/>
<stop offset="0.59375" stop-color="#1F35FF" stop-opacity="0.21"/>
<stop offset="0.786458" stop-color="#1F35FF" stop-opacity="0.1"/>
<stop offset="1" stop-color="#1F35FF" stop-opacity="0.02"/>
</linearGradient>
<linearGradient id="paint7_linear_1165_4204" x1="692.474" y1="482.496" x2="755.195" y2="892.773" gradientUnits="userSpaceOnUse">
<stop stop-color="#E6E7EC" stop-opacity="0.38"/>
<stop offset="0.25" stop-color="#172FFF" stop-opacity="0.06"/>
<stop offset="0.59375" stop-color="#1F35FF" stop-opacity="0.21"/>
<stop offset="0.786458" stop-color="#1F35FF" stop-opacity="0.1"/>
<stop offset="1" stop-color="#1F35FF" stop-opacity="0.02"/>
</linearGradient>
<linearGradient id="paint8_linear_1165_4204" x1="690.058" y1="528.67" x2="743.424" y2="877.75" gradientUnits="userSpaceOnUse">
<stop stop-color="#E6E7EC" stop-opacity="0.38"/>
<stop offset="0.25" stop-color="#172FFF" stop-opacity="0.06"/>
<stop offset="0.59375" stop-color="#1F35FF" stop-opacity="0.21"/>
<stop offset="0.786458" stop-color="#1F35FF" stop-opacity="0.1"/>
<stop offset="1" stop-color="#1F35FF" stop-opacity="0.02"/>
</linearGradient>
<linearGradient id="paint9_linear_1165_4204" x1="686.158" y1="570.119" x2="730.909" y2="862.847" gradientUnits="userSpaceOnUse">
<stop stop-color="#E6E7EC" stop-opacity="0.38"/>
<stop offset="0.25" stop-color="#172FFF" stop-opacity="0.06"/>
<stop offset="0.59375" stop-color="#1F35FF" stop-opacity="0.21"/>
<stop offset="0.786458" stop-color="#1F35FF" stop-opacity="0.1"/>
<stop offset="1" stop-color="#1F35FF" stop-opacity="0.02"/>
</linearGradient>
<linearGradient id="paint10_linear_1165_4204" x1="679.945" y1="604.498" x2="717.207" y2="848.237" gradientUnits="userSpaceOnUse">
<stop stop-color="#E6E7EC" stop-opacity="0.38"/>
<stop offset="0.25" stop-color="#172FFF" stop-opacity="0.06"/>
<stop offset="0.59375" stop-color="#1F35FF" stop-opacity="0.21"/>
<stop offset="0.786458" stop-color="#1F35FF" stop-opacity="0.1"/>
<stop offset="1" stop-color="#1F35FF" stop-opacity="0.02"/>
</linearGradient>
<linearGradient id="paint11_linear_1165_4204" x1="853.01" y1="400.276" x2="680.032" y2="-459.9" gradientUnits="userSpaceOnUse">
<stop stop-color="#B7C0C9" stop-opacity="0.28"/>
<stop offset="0.442708" stop-color="#5994CD" stop-opacity="0.97"/>
<stop offset="1" stop-color="#2191FF"/>
</linearGradient>
<linearGradient id="paint12_linear_1165_4204" x1="850.348" y1="349.996" x2="690.472" y2="-444.931" gradientUnits="userSpaceOnUse">
<stop stop-color="#B7C0C9" stop-opacity="0.28"/>
<stop offset="0.442708" stop-color="#5994CD" stop-opacity="0.97"/>
<stop offset="1" stop-color="#2191FF"/>
</linearGradient>
<linearGradient id="paint13_linear_1165_4204" x1="847.785" y1="299.792" x2="701.009" y2="-429.999" gradientUnits="userSpaceOnUse">
<stop stop-color="#B7C0C9" stop-opacity="0.28"/>
<stop offset="0.442708" stop-color="#5994CD" stop-opacity="0.97"/>
<stop offset="1" stop-color="#2191FF"/>
</linearGradient>
<linearGradient id="paint14_linear_1165_4204" x1="845.296" y1="249.72" x2="711.592" y2="-415.078" gradientUnits="userSpaceOnUse">
<stop stop-color="#B7C0C9" stop-opacity="0.28"/>
<stop offset="0.442708" stop-color="#5994CD" stop-opacity="0.97"/>
<stop offset="1" stop-color="#2191FF"/>
</linearGradient>
<linearGradient id="paint15_linear_1165_4204" x1="842.817" y1="199.858" x2="722.122" y2="-400.253" gradientUnits="userSpaceOnUse">
<stop stop-color="#B7C0C9" stop-opacity="0.28"/>
<stop offset="0.442708" stop-color="#5994CD" stop-opacity="0.97"/>
<stop offset="1" stop-color="#2191FF"/>
</linearGradient>
<linearGradient id="paint16_linear_1165_4204" x1="840.511" y1="150.269" x2="732.784" y2="-385.369" gradientUnits="userSpaceOnUse">
<stop stop-color="#B7C0C9" stop-opacity="0.28"/>
<stop offset="0.442708" stop-color="#5994CD" stop-opacity="0.97"/>
<stop offset="1" stop-color="#2191FF"/>
</linearGradient>
<linearGradient id="paint17_linear_1165_4204" x1="838.417" y1="101.126" x2="743.562" y2="-370.508" gradientUnits="userSpaceOnUse">
<stop stop-color="#B7C0C9" stop-opacity="0.28"/>
<stop offset="0.442708" stop-color="#5994CD" stop-opacity="0.97"/>
<stop offset="1" stop-color="#2191FF"/>
</linearGradient>
<linearGradient id="paint18_linear_1165_4204" x1="836.738" y1="52.9407" x2="754.555" y2="-355.687" gradientUnits="userSpaceOnUse">
<stop stop-color="#B7C0C9" stop-opacity="0.28"/>
<stop offset="0.442708" stop-color="#5994CD" stop-opacity="0.97"/>
<stop offset="1" stop-color="#2191FF"/>
</linearGradient>
<linearGradient id="paint19_linear_1165_4204" x1="835.883" y1="6.73133" x2="765.958" y2="-340.945" gradientUnits="userSpaceOnUse">
<stop stop-color="#B7C0C9" stop-opacity="0.28"/>
<stop offset="0.442708" stop-color="#5994CD" stop-opacity="0.97"/>
<stop offset="1" stop-color="#2191FF"/>
</linearGradient>
<linearGradient id="paint20_linear_1165_4204" x1="836.845" y1="-34.8295" x2="778.208" y2="-326.381" gradientUnits="userSpaceOnUse">
<stop stop-color="#B7C0C9" stop-opacity="0.28"/>
<stop offset="0.442708" stop-color="#5994CD" stop-opacity="0.97"/>
<stop offset="1" stop-color="#2191FF"/>
</linearGradient>
</defs>
</svg>
